HIERARCHY
ROOT Hips
{
	OFFSET 0.000000 0.000000 0.000000
	CHANNELS 6 Xposition Yposition Zposition Zrotation Yrotation Xrotation 
	JOINT LHipJoint
	{
		OFFSET 0.000000 0.000000 0.000000
		CHANNELS 3 Zrotation Yrotation Xrotation
		JOINT LeftUpLeg
		{
			OFFSET 1.363060 -1.794630 0.839290
			CHANNELS 3 Zrotation Yrotation Xrotation
			JOINT LeftLeg
			{
				OFFSET 2.448110 -6.726130 0.000000
				CHANNELS 3 Zrotation Yrotation Xrotation
				JOINT LeftFoot
				{
					OFFSET 2.562200 -7.039590 0.000000
					CHANNELS 3 Zrotation Yrotation Xrotation
					JOINT LeftToeBase
					{
						OFFSET 0.157640 -0.433110 2.322550
						CHANNELS 3 Zrotation Yrotation Xrotation
						End Site
						{
							OFFSET 0.000000 0.000000 0.000000
						}
					}
				}
			}
		}
	}
	JOINT RHipJoint
	{
		OFFSET 0.000000 0.000000 0.000000
		CHANNELS 3 Zrotation Yrotation Xrotation
		JOINT RightUpLeg
		{
			OFFSET -1.305520 -1.794630 0.839290
			CHANNELS 3 Zrotation Yrotation Xrotation
			JOINT RightLeg
			{
				OFFSET -2.542530 -6.985550 0.000000
				CHANNELS 3 Zrotation Yrotation Xrotation
				JOINT RightFoot
				{
					OFFSET -2.568260 -7.056230 0.000000
					CHANNELS 3 Zrotation Yrotation Xrotation
					JOINT RightToeBase
					{
						OFFSET -0.164730 -0.452590 2.363150
						CHANNELS 3 Zrotation Yrotation Xrotation
						End Site
						{
							OFFSET 0.000000 0.000000 0.000000
						}
					}
				}
			}
		}
	}
	JOINT LowerBack
	{
		OFFSET 0.000000 0.000000 0.000000
		CHANNELS 3 Zrotation Yrotation Xrotation
		JOINT Spine
		{
			OFFSET 0.028270 2.035590 -0.193380
			CHANNELS 3 Zrotation Yrotation Xrotation
			JOINT Spine1
			{
				OFFSET 0.056720 2.048850 -0.042750
				CHANNELS 3 Zrotation Yrotation Xrotation
				JOINT Neck
				{
					OFFSET 0.000000 0.000000 0.000000
					CHANNELS 3 Zrotation Yrotation Xrotation
					JOINT Neck1
					{
						OFFSET -0.054170 1.746240 0.172020
						CHANNELS 3 Zrotation Yrotation Xrotation
						JOINT Head
						{
							OFFSET 0.104070 1.761360 -0.123970
							CHANNELS 3 Zrotation Yrotation Xrotation
							End Site
							{
								OFFSET 0.000000 0.000000 0.000000
							}
						}
					}
				}
				JOINT LeftShoulder
				{
					OFFSET 0.000000 0.000000 0.000000
					CHANNELS 3 Zrotation Yrotation Xrotation
					JOINT LeftArm
					{
						OFFSET 3.362410 1.200890 -0.311210
						CHANNELS 3 Zrotation Yrotation Xrotation
						JOINT LeftForeArm
						{
							OFFSET 4.983000 -0.000000 -0.000000
							CHANNELS 3 Zrotation Yrotation Xrotation
							JOINT LeftHand
							{
								OFFSET 3.483560 -0.000000 -0.000000
								CHANNELS 3 Zrotation Yrotation Xrotation
								JOINT LeftFingerBase
								{
									OFFSET 0.000000 0.000000 0.000000
									CHANNELS 3 Zrotation Yrotation Xrotation
									JOINT LeftHandIndex1
									{
										OFFSET 0.715260 -0.000000 -0.000000
										CHANNELS 3 Zrotation Yrotation Xrotation
										End Site
										{
											OFFSET 0.000000 0.000000 0.000000
										}
									}
								}
								JOINT LThumb
								{
									OFFSET 0.000000 0.000000 0.000000
									CHANNELS 3 Zrotation Yrotation Xrotation
									End Site
									{
										OFFSET 0.000000 0.000000 0.000000
									}
								}
							}
						}
					}
				}
				JOINT RightShoulder
				{
					OFFSET 0.000000 0.000000 0.000000
					CHANNELS 3 Zrotation Yrotation Xrotation
					JOINT RightArm
					{
						OFFSET -3.136600 1.374050 -0.404650
						CHANNELS 3 Zrotation Yrotation Xrotation
						JOINT RightForeArm
						{
							OFFSET -5.241900 -0.000000 -0.000000
							CHANNELS 3 Zrotation Yrotation Xrotation
							JOINT RightHand
							{
								OFFSET -3.444170 -0.000000 -0.000000
								CHANNELS 3 Zrotation Yrotation Xrotation
								JOINT RightFingerBase
								{
									OFFSET 0.000000 0.000000 0.000000
									CHANNELS 3 Zrotation Yrotation Xrotation
									JOINT RightHandIndex1
									{
										OFFSET -0.622530 -0.000000 -0.000000
										CHANNELS 3 Zrotation Yrotation Xrotation
										End Site
										{
											OFFSET 0.000000 0.000000 0.000000
										}
									}
								}
								JOINT RThumb
								{
									OFFSET 0.000000 0.000000 0.000000
									CHANNELS 3 Zrotation Yrotation Xrotation
									End Site
									{
										OFFSET 0.000000 0.000000 0.000000
									}
								}
							}
						}
					}
				}
			}
		}
	}
}
MOTION
Frames: 11
Frame Time: 0.008333
1.664388 17.749842 -0.145328 9.228014 76.741386 9.295469 -10.884596 1.580076 1.980949 -9.322724 11.259675 -18.816837 -2.189774 -0.550777 4.805715 0.783467 7.204916 5.351850 1.811800 0.000000 -36.567700 9.832323 -4.175139 -1.226742 4.554849 -14.471255 5.652788 -0.192690 -2.506217 28.592329 -2.211229 -13.110582 16.803132 -5.409800 0.000000 -58.616300 -2.370518 1.963813 -3.431609 -0.821519 2.029620 -2.700180 -3.909542 1.959282 3.586863 8.493588 -14.984760 -9.449964 -0.290443 0.002657 -0.460830 0.000000 0.000000 0.000000 -5.669775 32.957250 1.386299 -84.263249 37.115225 -7.657339 -4.353674 -19.052685 -0.039589 -6.927345 13.317409 -0.814542 -0.068598 -0.193738 -0.000000 0.000000 0.000000 0.000000 0.000000 0.000000 0.000000 4.939030 -9.417837 -0.826590 42.462283 14.987043 -0.479556 0.972214 51.408784 -0.000950 -0.695425 0.437721 -0.003546 0.040972 -0.178882 0.000000 0.000000 0.000000 0.000000 0.000000 0.000000 0.000000 
1.885316 17.752994 -0.132686 9.140291 76.471856 8.872600 -10.933567 1.643727 1.980005 -9.146914 11.078035 -18.142517 -2.151385 -0.488777 4.687769 0.711532 6.824692 6.441067 1.845600 0.000000 -37.437600 9.923602 -4.059699 -1.523959 3.922834 -15.539042 5.291098 -0.331578 -2.568526 30.501174 -2.597363 -15.651658 15.666393 -6.250500 -0.000000 -54.462200 -2.352066 1.879453 -3.124067 -0.798832 1.958429 -2.631705 -3.871666 1.893170 3.610189 8.443117 -15.040071 -9.471161 -0.247126 0.006912 -0.469602 0.000000 0.000000 0.000000 -5.549028 33.018716 1.483928 -84.959369 37.392386 -7.641729 -4.429697 -19.532068 -0.044724 -8.364258 14.542480 -1.077516 -0.060937 -0.200612 -0.000000 0.000000 0.000000 0.000000 0.000000 0.000000 0.000000 4.746455 -9.511818 -0.860112 42.512670 15.215612 -0.948321 0.952278 51.318959 -0.000989 -0.695103 0.489925 -0.003860 0.039294 -0.181778 0.000000 0.000000 0.000000 0.000000 0.000000 0.000000 0.000000 
2.105065 17.744606 -0.120206 8.999473 76.223983 8.446988 -10.968933 1.693875 1.989641 -8.940773 10.751715 -17.519648 -2.091968 -0.427245 4.830890 0.691212 6.740690 7.102093 1.890501 -0.000000 -37.916100 10.004679 -3.934588 -1.819200 3.331157 -16.528038 4.821553 -0.430526 -2.638013 32.506803 -2.947108 -17.881060 13.852777 -6.724700 -0.000000 -49.982000 -2.319363 1.783678 -2.814827 -0.775831 1.874308 -2.565082 -3.849307 1.814456 3.629520 8.430251 -15.110727 -9.514764 -0.218713 0.010291 -0.484102 0.000000 0.000000 0.000000 -5.468573 33.028699 1.575935 -85.548402 37.531440 -7.408317 -4.498799 -20.067270 -0.049969 -9.863128 15.817095 -1.385989 -0.053094 -0.207484 -0.000000 0.000000 0.000000 0.000000 0.000000 0.000000 0.000000 4.652538 -9.607481 -0.883494 42.614658 15.357946 -1.468220 0.942629 51.260306 -0.001007 -0.694181 0.553631 -0.004270 0.038216 -0.184573 0.000000 0.000000 0.000000 0.000000 0.000000 0.000000 0.000000 
2.323821 17.724754 -0.107904 8.809126 75.974745 8.029156 -10.990348 1.730343 2.004313 -8.721706 10.317977 -16.965507 -2.017198 -0.368038 5.225085 0.714043 6.919295 7.332365 1.950400 0.000000 -38.053800 10.077498 -3.807925 -2.099105 2.786329 -17.397896 4.226022 -0.492567 -2.718869 34.595893 -3.241593 -19.650774 11.496933 -6.749300 -0.000000 -45.516500 -2.272332 1.683611 -2.513949 -0.753803 1.783921 -2.502797 -3.844631 1.729619 3.643742 8.454750 -15.193430 -9.575681 -0.206132 0.012634 -0.502889 0.000000 0.000000 0.000000 -5.437836 32.992577 1.656934 -86.014519 37.548379 -6.901543 -4.548487 -20.714149 -0.055073 -11.309699 17.163906 -1.729162 -0.045600 -0.214519 -0.000000 0.000000 0.000000 0.000000 0.000000 0.000000 0.000000 4.660879 -9.699835 -0.895327 42.762364 15.415957 -2.021663 0.944006 51.224421 -0.001007 -0.693282 0.618440 -0.004676 0.037813 -0.187064 0.000000 0.000000 0.000000 0.000000 0.000000 0.000000 0.000000 
2.541807 17.693668 -0.095475 8.628634 75.708697 7.687524 -10.994731 1.753466 2.026903 -8.515378 9.766278 -16.475004 -1.931082 -0.314649 5.824031 0.777794 7.364551 7.166573 2.032300 -0.000000 -37.962400 10.148370 -3.684598 -2.352253 2.281157 -18.120994 3.477807 -0.521873 -2.812996 36.763894 -3.466540 -20.874561 8.747453 -6.319899 -0.000000 -41.317800 -2.226571 1.583753 -2.238225 -0.736443 1.692305 -2.447819 -3.857025 1.643391 3.653902 8.515912 -15.282051 -9.648294 -0.210782 0.013728 -0.524387 0.000000 0.000000 0.000000 -5.448907 32.914047 1.719963 -86.347928 37.427410 -6.232454 -4.584260 -21.364543 -0.059583 -12.690424 18.334748 -2.077528 -0.038600 -0.220200 -0.000000 0.000000 0.000000 0.000000 0.000000 0.000000 0.000000 4.774087 -9.786118 -0.895640 42.954076 15.390322 -2.589284 0.956693 51.198983 -0.001006 -0.697200 0.674488 -0.005078 0.038195 -0.189016 0.000000 0.000000 0.000000 0.000000 0.000000 0.000000 0.000000 
2.759203 17.651446 -0.082900 8.426798 75.409083 7.397813 -10.988426 1.764042 2.037481 -8.343768 9.257740 -16.155086 -1.847916 -0.261087 6.735187 0.862533 7.890973 6.576597 2.075401 0.000000 -37.619401 10.215427 -3.571420 -2.557273 1.849538 -18.661856 2.546456 -0.523622 -2.917687 39.006251 -3.615563 -21.545848 5.751796 -5.512000 0.000000 -37.546400 -2.172805 1.489944 -1.998324 -0.722375 1.604252 -2.402800 -3.886412 1.560312 3.658649 8.606827 -15.368932 -9.725685 -0.232485 0.013454 -0.546588 0.000000 0.000000 0.000000 -5.501774 32.794275 1.760997 -86.548944 37.183081 -5.407019 -4.599086 -22.017038 -0.063134 -13.909125 19.275584 -2.398883 -0.032179 -0.224369 -0.000000 0.000000 0.000000 0.000000 0.000000 0.000000 0.000000 4.981224 -9.861114 -0.884537 43.194051 15.282217 -3.152695 0.980749 51.167604 -0.001021 -0.713485 0.714542 -0.005473 0.039509 -0.190263 0.000000 0.000000 0.000000 0.000000 0.000000 0.000000 0.000000 
2.975463 17.598220 -0.068767 8.419837 75.076284 7.363760 -10.961349 1.763997 2.041542 -8.261952 8.715885 -15.930388 -1.770283 -0.211733 7.851305 0.974526 8.564137 5.657644 2.097000 0.000000 -37.221900 10.295936 -3.462667 -2.721147 1.414025 -19.039248 1.434063 -0.502420 -3.034768 41.319816 -3.681787 -21.656916 2.634314 -4.428900 0.000000 -34.263899 -2.171937 1.396094 -1.792355 -0.723981 1.517919 -2.367520 -3.933035 1.478378 3.656776 8.733124 -15.446038 -9.802920 -0.271735 0.011706 -0.568266 0.000000 0.000000 0.000000 -5.572622 32.627165 1.779164 -86.626244 36.822433 -4.445336 -4.589009 -22.663071 -0.065480 -14.873144 19.955821 -2.659925 -0.026456 -0.227099 -0.000000 0.000000 0.000000 0.000000 0.000000 0.000000 0.000000 5.289631 -9.922612 -0.863344 43.495695 15.100353 -3.695269 1.016262 51.113268 -0.001091 -0.752113 0.736092 -0.005963 0.041881 -0.190713 0.000000 0.000000 0.000000 0.000000 0.000000 0.000000 0.000000 
3.190548 17.534039 -0.052973 8.544113 74.704123 7.522846 -10.923463 1.755430 2.013739 -8.280284 8.340134 -15.931540 -1.713780 -0.156084 9.325496 1.089003 9.152315 4.373889 2.020800 0.000001 -36.681900 10.384391 -3.362004 -2.826148 1.015481 -19.231642 0.125840 -0.464203 -3.159228 43.691218 -3.671489 -21.289364 -0.487276 -3.217300 -0.000000 -31.509400 -2.209499 1.304299 -1.623520 -0.737956 1.434244 -2.343052 -3.995220 1.398364 3.647119 8.884189 -15.504447 -9.874740 -0.327187 0.008492 -0.587910 0.000000 0.000000 0.000000 -5.657678 32.412539 1.774622 -86.590945 36.354452 -3.360522 -4.549737 -23.290557 -0.066373 -15.506576 20.366388 -2.833451 -0.021331 -0.228440 -0.000000 0.000000 0.000000 0.000000 0.000000 0.000000 0.000000 5.678945 -9.965359 -0.833777 43.869877 14.847467 -4.200401 1.062635 51.018659 -0.001240 -0.821697 0.740975 -0.006548 0.045395 -0.190331 0.000000 0.000000 0.000000 0.000000 0.000000 0.000000 0.000000 
3.403930 17.459020 -0.034731 8.866119 74.298682 7.929576 -10.874219 1.741642 1.946842 -8.420591 8.159457 -16.160298 -1.683987 -0.089874 11.159887 1.199224 9.610075 2.776539 1.838100 0.000000 -36.080400 10.485964 -3.265099 -2.875160 0.627353 -19.252728 -1.364405 -0.415151 -3.289871 46.103196 -3.593213 -20.522422 -3.516992 -2.006500 0.000000 -29.289100 -2.309366 1.208580 -1.484580 -0.768250 1.349123 -2.328026 -4.070994 1.316094 3.628880 9.056621 -15.535358 -9.938194 -0.397733 0.003866 -0.604832 0.000000 0.000000 0.000000 -5.739317 32.145922 1.750418 -86.458746 35.780788 -2.168770 -4.480200 -23.883544 -0.065716 -15.755213 20.516262 -2.901661 -0.016851 -0.228481 -0.000000 0.000000 0.000000 0.000000 0.000000 0.000000 0.000000 6.138728 -9.985714 -0.798358 44.332011 14.529926 -4.654737 1.119240 50.868031 -0.001480 -0.929532 0.736346 -0.007428 0.050058 -0.189161 0.000000 0.000000 0.000000 0.000000 0.000000 0.000000 0.000000 
3.615142 17.373406 -0.013702 9.359445 73.868554 8.548807 -10.817782 1.726299 1.832411 -8.678078 8.226899 -16.645075 -1.685179 -0.005674 13.392404 1.294955 9.866798 0.895231 1.542100 0.000001 -35.420600 10.598939 -3.169482 -2.869666 0.255482 -19.114072 -3.019963 -0.362635 -3.424366 48.535657 -3.462955 -19.467863 -6.376616 -0.901700 -0.000000 -27.590099 -2.469158 1.103652 -1.368498 -0.812889 1.257403 -2.320529 -4.156619 1.226369 3.603841 9.241984 -15.530811 -9.993259 -0.481513 -0.002014 -0.619136 0.000000 0.000000 0.000000 -5.806487 31.828367 1.713478 -86.248913 35.080549 -0.921014 -4.385829 -24.405244 -0.063722 -15.633446 20.478451 -2.873954 -0.013288 -0.227273 -0.000000 0.000000 0.000000 0.000000 0.000000 0.000000 0.000000 6.649667 -9.977746 -0.760574 44.895327 14.153345 -5.047754 1.185034 50.646768 -0.001822 -1.080591 0.734693 -0.008603 0.055797 -0.187317 0.000000 0.000000 0.000000 0.000000 0.000000 0.000000 0.000000 
3.823661 17.277563 0.010162 9.985827 73.427219 9.332331 -10.757252 1.712782 1.668783 -9.035804 8.540098 -17.379262 -1.715916 0.102794 16.020761 1.372283 9.912175 -1.221184 1.152400 -0.000001 -34.722000 10.721310 -3.071371 -2.818037 -0.097747 -18.838543 -4.815596 -0.314404 -3.561497 50.969370 -3.300721 -18.248392 -9.012946 0.034700 -0.000000 -26.357100 -2.681429 0.984143 -1.264104 -0.868800 1.153690 -2.318067 -4.248092 1.123813 3.571551 9.430443 -15.484683 -10.039403 -0.576395 -0.008964 -0.630831 0.000000 0.000000 0.000000 -5.847153 31.455313 1.668455 -85.980335 34.249419 0.368700 -4.271163 -24.816164 -0.060421 -15.157892 20.203093 -2.747732 -0.010649 -0.224457 -0.000000 0.000000 0.000000 0.000000 0.000000 0.000000 0.000000 7.189582 -9.939776 -0.722940 45.573518 13.720647 -5.373863 1.259030 50.341783 -0.002250 -1.277205 0.751949 -0.010474 0.062479 -0.184963 0.000000 0.000000 0.000000 0.000000 0.000000 0.000000 0.000000 
